<?xml version="1.0" standalone="no"?>
<!DOCTYPE svg PUBLIC "-//W3C//DTD SVG 20010904//EN"
 "http://www.w3.org/TR/2001/REC-SVG-20010904/DTD/svg10.dtd">
<svg version="1.0" xmlns="http://www.w3.org/2000/svg"
 width="256.000000pt" height="256.000000pt" viewBox="0 0 256.000000 256.000000"
 preserveAspectRatio="xMidYMid meet">
<metadata>
Created by potrace 1.11, written by Peter Selinger 2001-2013
</metadata>
<g transform="translate(0.000000,256.000000) scale(0.100000,-0.100000)"
fill="#000000" stroke="none">
<path d="M1175 2531 c-38 -10 -89 -27 -112 -39 -51 -26 -64 -27 -120 -6 -61
24 -93 8 -141 -68 -20 -33 -70 -105 -110 -159 -41 -55 -77 -112 -82 -129 -10
-34 -6 -89 20 -260 11 -69 20 -181 21 -250 2 -106 -1 -134 -20 -188 -19 -55
-31 -119 -57 -299 -3 -18 -11 -38 -18 -45 -17 -17 -9 -38 15 -38 17 0 19 -8
19 -62 0 -35 3 -80 7 -101 6 -37 5 -38 -21 -31 -35 8 -34 -9 4 -36 32 -23 119
-52 132 -44 4 3 8 133 8 289 0 156 4 286 9 289 4 3 11 61 15 128 7 112 10 126
34 158 15 19 71 100 125 179 53 80 97 137 97 128 0 -10 -7 -62 -16 -117 l-17
-99 -53 -35 c-42 -28 -56 -44 -65 -77 -16 -53 3 -95 42 -91 13 1 60 6 104 12
64 7 89 6 124 -6 64 -22 96 -12 115 38 9 22 14 49 11 59 -7 21 5 25 23 7 9 -9
12 -8 12 5 0 9 6 17 14 17 9 0 15 14 18 40 3 35 1 41 -17 44 -39 8 -65 2 -65
-14 0 -17 -18 -40 -32 -40 -4 0 -5 7 -2 15 5 11 -2 15 -27 15 -42 0 -111 23
-108 36 2 5 34 31 72 57 37 27 71 55 74 63 7 18 23 8 23 -16 0 -30 52 -40 92
-17 55 31 167 168 219 267 41 78 55 93 78 85 12 -3 21 -12 21 -18 0 -7 -27
-75 -60 -152 -63 -146 -70 -179 -44 -189 27 -10 38 -7 79 29 22 19 44 35 49
35 5 0 7 3 4 6 -8 7 76 84 91 84 21 0 0 -51 -63 -157 -59 -99 -61 -101 -93
-96 -40 7 -169 -24 -204 -48 -14 -10 -28 -16 -31 -14 -6 6 -9 -17 -11 -72 -1
-23 3 -47 8 -52 6 -5 89 -12 186 -16 l177 -6 12 36 c7 21 10 52 7 69 -4 23 -1
33 8 33 8 0 14 -3 13 -6 -2 -19 3 -24 11 -12 14 22 41 -80 47 -179 7 -111 20
-153 44 -147 16 4 20 -5 31 -67 22 -127 14 -426 -11 -411 -5 3 -9 87 -10 187
0 100 -3 184 -5 187 -3 2 -5 -98 -5 -222 l0 -227 24 -6 c28 -7 80 15 121 51
25 22 26 25 6 15 l-24 -12 6 53 c4 30 7 79 7 109 0 48 3 57 23 65 32 15 35 51
3 59 -21 5 -26 14 -31 54 -14 113 -37 228 -49 244 -6 9 -21 16 -32 15 -17 -2
-19 6 -22 81 -2 46 4 138 13 205 49 369 50 430 5 502 -11 18 -20 49 -20 69 0
20 -6 52 -14 71 -26 61 -78 71 -170 30 -31 -14 -66 -25 -77 -25 -12 0 -51 31
-97 78 -94 95 -147 122 -234 121 -35 0 -94 -8 -133 -18z m-374 -543 c-43 -162
-53 -181 -46 -88 3 41 10 91 15 110 11 40 49 105 56 97 3 -3 -8 -57 -25 -119z"/>
<path d="M1278 1773 c7 -3 16 -2 19 1 4 3 -2 6 -13 5 -11 0 -14 -3 -6 -6z"/>
<path d="M1327 1714 c-8 -8 1 -24 14 -24 5 0 9 7 9 15 0 15 -12 20 -23 9z"/>
<path d="M980 1400 c-22 -7 -21 -8 13 -9 21 -1 47 -6 59 -12 21 -11 38 -4 22
10 -14 14 -67 20 -94 11z"/>
<path d="M1557 1398 c-15 -11 -7 -13 47 -13 56 0 62 2 43 12 -29 16 -69 16
-90 1z"/>
<path d="M997 1365 c-3 -7 -16 -15 -29 -17 -12 -2 -29 -15 -38 -30 -13 -25
-13 -31 0 -55 52 -92 170 -48 145 53 -8 29 -17 41 -42 50 -26 11 -32 11 -36
-1z"/>
<path d="M1558 1359 c-45 -22 -58 -60 -37 -98 30 -53 107 -53 134 -1 20 39 19
62 -6 94 -24 30 -40 31 -91 5z"/>
<path d="M1122 1295 c-2 -82 -33 -116 -120 -131 -60 -11 -62 -12 -25 -13 42
-1 129 26 119 37 -3 3 1 10 9 16 21 16 48 136 30 136 -8 0 -13 -15 -13 -45z"/>
<path d="M1460 1330 c-9 -6 -10 -10 -3 -10 6 0 15 5 18 10 8 12 4 12 -15 0z"/>
<path d="M1509 1200 c13 -11 28 -20 35 -20 6 0 0 9 -14 20 -33 26 -52 25 -21
0z"/>
<path d="M1564 1156 c22 -18 56 -21 56 -6 0 6 -9 10 -19 10 -11 0 -28 3 -38 6
-16 5 -16 4 1 -10z"/>
<path d="M1262 970 c-7 -12 -24 -25 -38 -31 -23 -8 -24 -11 -13 -26 20 -24 77
-45 102 -37 25 7 87 52 87 62 0 4 -16 7 -35 8 -23 0 -43 8 -56 22 -25 27 -31
27 -47 2z"/>
<path d="M680 716 c-14 -13 -56 -33 -94 -45 -90 -29 -129 -60 -166 -134 -33
-66 -39 -130 -16 -182 13 -29 12 -32 -25 -70 -21 -22 -52 -65 -69 -95 -33 -59
-90 -176 -90 -185 0 -3 199 -5 443 -5 l442 1 -65 57 c-114 100 -291 276 -322
321 l-30 43 14 77 c9 49 12 106 9 159 l-6 83 -25 -25z"/>
<path d="M962 718 c-7 -7 -12 -25 -12 -41 0 -26 3 -28 24 -23 17 4 41 -6 92
-39 38 -25 84 -50 104 -55 39 -11 311 -14 384 -4 35 5 46 11 46 24 0 28 -28
32 -101 14 -57 -14 -79 -15 -126 -6 -40 8 -71 8 -101 2 -24 -6 -47 -8 -51 -6
-4 3 -26 7 -50 10 -51 6 -146 66 -170 107 -18 32 -22 34 -39 17z"/>
<path d="M1872 653 c-1 -32 4 -97 12 -143 l15 -85 -27 -39 c-15 -22 -106 -118
-202 -213 l-175 -173 443 0 442 0 -15 38 c-9 20 -29 55 -45 78 -16 22 -32 52
-35 66 -4 14 -33 51 -65 83 -52 51 -57 61 -49 82 20 53 11 132 -23 195 -37 71
-68 94 -168 129 -41 14 -82 29 -90 33 -13 5 -16 -4 -18 -51z"/>
</g>
</svg>
